# xmcd
#
# Track frame offsets:
# 150
# 18821
# 34191
# 59641
# 73519
# 103205
# 122169
# 135745
# 159257
# 169129
# 185512
# 203280
# 214323
# 230754
#
# Disc length: 3272 seconds
#
#
# Revision: 0
# Processed by: cddbd v1.5.2PL0 Copyright (c) Steve Scherf et al.
# Submitted via: FreeRIP 2.93 
#
DISCID=c70cc60e
DTITLE=Alexander Romanenko - Neues aus deutschen Gettos und andere unanständige Songs
DYEAR=1997
DGENRE=Blues
TTITLE0=Bye-bye, Baby
TTITLE1=Nelly, my sweet Nelly
TTITLE2=Theresa arriva
TTITLE3=Saharasand
TTITLE4=Boch
TTITLE5=Stotter - Schlotter - Blues
TTITLE6=Joint
TTITLE7=Änne
TTITLE8=Carabell
TTITLE9=Stammheim
TTITLE10=Fly
TTITLE11=Ahoi, hey Hure
TTITLE12=Hilde
TTITLE13=Horizont
EXTD=
EXTT0=
EXTT1=
EXTT2=
EXTT3=
EXTT4=
EXTT5=
EXTT6=
EXTT7=
EXTT8=
EXTT9=
EXTT10=
EXTT11=
EXTT12=
EXTT13=
PLAYORDER=
